<svg xmlns="http://www.w3.org/2000/svg" width="33" height="30" viewBox="0 0 33 30">
    <path fill="red" d="M4.493 30h-.064a4.668 4.668 0 0 1-4.086-6.426l12.08-21.18a4.667 4.667 0 0 1 8.161.015l12 21.019a4.746 4.746 0 0 1 .409 1.663A4.67 4.67 0 0 1 28.57 30H4.612z" opacity="0.4"/>
    <path fill="red" d="M0 11.578a1.469 1.469 0 0 1 1.5-1.43A1.428 1.428 0 1 1 1.5 13 1.465 1.465 0 0 1 0 11.578zm0-5.56v-4.6A1.466 1.466 0 0 1 1.5 0 1.465 1.465 0 0 1 3 1.422v4.6A1.464 1.464 0 0 1 1.5 7.44 1.465 1.465 0 0 1 0 6.018z" transform="translate(15 11)"/>
</svg>
