<svg xmlns="http://www.w3.org/2000/svg" width="19" height="20" viewBox="0 0 19 20">
    <path fill="#fff" d="M9.31 20a4.532 4.532 0 0 1-4.61-4.437v-.941a.8.8 0 0 1 1.6 0v.941a2.96 2.96 0 0 0 3.01 2.9h5.067a2.969 2.969 0 0 0 3.023-2.91.8.8 0 0 1 1.6 0A4.543 4.543 0 0 1 14.377 20zm-.039-6.547a.774.774 0 0 1 0-1.089l1.592-1.593H.766a.77.77 0 0 1 0-1.541h11.956a.766.766 0 0 1 .708.477.774.774 0 0 1-.167.84l-2.908 2.908a.765.765 0 0 1-1.084 0zm8.127-1.4V4.437a2.959 2.959 0 0 0-3.01-2.9H9.32a2.969 2.969 0 0 0-3.02 2.91v.931a.8.8 0 0 1-1.6 0v-.931A4.543 4.543 0 0 1 9.32 0h5.067A4.533 4.533 0 0 1 19 4.437v7.614a.8.8 0 0 1-1.6 0zm-7.391-3.687l-.732-.726a.773.773 0 0 1-.006-1.09.763.763 0 0 1 1.084-.006l.734.728a.771.771 0 0 1 0 1.088.753.753 0 0 1-.544.229.763.763 0 0 1-.536-.223z"/>
</svg>
